<svg xmlns="http://www.w3.org/2000/svg" viewBox="0 0 23.3 31.5"><path fill="#1E508F" d="M12.8 6l6 6.2h-5c-.5 0-1-.4-1-1V5.8m-.9-1.9v7.2c0 1 .9 2 2 2h7.2l-9.2-9.2z"/><path fill="#1E508F" d="M11.7 4.8l8.4 8.6v16c0 .5-.4 1-1 1H2c-.5 0-1-.4-1-1V5.8c0-.5.4-1 1-1h9.7m.2-.9H2c-1 0-2 .9-2 2v23.6c0 1 .9 2 2 2h17.2c1 0 2-.9 2-2V13l-9.3-9.1z"/><path fill="#EF4942" d="M3.6 21.3c-.5 0-.9-.3-1.1-.7-.1-.3-.3-.6 0-1.2.4-1 1.8-2.4 3.8-3.1.2-.1.3-.1.5-.2l.9-.3c.6-1.2 1.2-2.6 1.7-3.9-.4-.8-.8-1.5-.9-2.2-.5-2-.5-3.1 0-3.8.3-.3.6-.5 1-.6h.2c.3 0 .8.2 1 .6.3.4.9 1.4.4 3.6-.2.7-.3 1.4-.7 2.5.6.9 1.4 1.9 2.5 3h.4c.4 0 .9 0 1.3.1 2.1.3 3.2.6 3.7 1.3.3.5.3 1 .3 1.4-.1.6-.6.9-1.4.9-1.1 0-2.5-.7-3.7-1.8-.3-.3-.7-.6-.9-.9-1.6.1-3 .4-4.2.9-.5 1-1.3 2.3-2 3-1.1.9-2.1 1.4-2.8 1.4zM7 17.2c-.2.1-.3.1-.4.2-1.6.6-3 1.7-3.2 2.6-.1.2-.1.3 0 .3.1.2.2.2.3.2.2 0 .9-.1 2.1-1.4.2-.5.7-1.1 1.2-1.9zm6.9-1.4c.1.1.2.2.3.2 1.2 1 2.4 1.5 3.1 1.5.1 0 .4 0 .4-.2.1-.4 0-.5-.1-.7-.3-.4-1.4-.7-3.1-.9-.2.2-.4.2-.6.1zm-5-.3c.8-.2 1.7-.4 2.6-.5-.6-.7-1.2-1.3-1.6-1.9v.1c-.3.7-.6 1.5-1 2.3zm.7-9.2c-.3 0-.3.1-.4.2-.2.2-.4.9.2 3 .1.4.3.8.4 1.2.2-.6.3-1 .4-1.4.3-1.8-.1-2.6-.3-2.8-.2-.1-.3-.2-.3-.2z"/><path d="M5.1 23.6c.3-.1.8-.1 1.4-.1.7 0 1.1.2 1.4.4.3.3.5.6.5 1.1 0 .4-.2.9-.4 1.1-.3.3-.9.5-1.5.5h-.4v1.9h-.9l-.1-4.9zm.9 2.3h.4c.7 0 1.1-.3 1.1-.9 0-.5-.3-.9-1-.9-.3 0-.4 0-.5.1v1.7zm3.2-2.3c.4-.1.9-.1 1.4-.1.9 0 1.5.2 2 .6.5.4.8.9.8 1.8s-.3 1.5-.8 2c-.5.4-1.3.7-2.2.7-.5 0-.9 0-1.2-.1v-4.9zm.9 4.1h.5c1.2 0 1.9-.6 1.9-1.9 0-1.1-.6-1.7-1.7-1.7-.3 0-.5 0-.6.1l-.1 3.5zm4-4.2h2.8v.8h-2v1.4h1.8v.7H15v2h-1l.1-4.9z" fill="#1E508F"/><path fill="#EF4942" d="M19.6 8.6c-.2 0-.4-.1-.5-.2l-3-3c-.2-.3-.3-.7-.1-.9.2-.3.3-.4.7-.4h.6V.8c0-.5.3-.8.7-.8h3.2c.4 0 .8.3.8.8v3.4h.6c.3 0 .6.2.7.5.1.3.1.6-.2.8l-3 3c-.2 0-.4.1-.5.1zM17 5l2.6 2.6L22 5.2h-.3c-.4 0-.8-.3-.8-.8V1h-2.7v3.3c0 .4-.3.8-.8.8L17 5z"/></svg>