<svg xmlns="http://www.w3.org/2000/svg" viewBox="0 0 53 51"><path fill="#1E508F" d="M29.5 12.1l7.1 7.3h-5.9c-.6 0-1.2-.5-1.2-1.2v-6.3m-1-2.2v8.5c0 1.2 1 2.3 2.3 2.3h8.5L28.5 9.7z"/><path fill="#1E508F" d="M28.2 10.8l9.9 10.1v18.8c0 .6-.5 1.2-1.2 1.2H16.8c-.6 0-1.2-.5-1.2-1.2V11.9c0-.6.5-1.2 1.2-1.2h11.3m.4-1H16.8c-1.2 0-2.3 1-2.3 2.3v27.8c0 1.2 1 2.3 2.3 2.3H37c1.2 0 2.3-1 2.3-2.3V20.4L28.5 9.7z"/><path fill="#EF4942" d="M18.7 30.2c-.6 0-1.1-.3-1.3-.8-.1-.3-.3-.7 0-1.4.5-1.2 2.1-2.8 4.5-3.6.2-.1.4-.1.6-.2.3-.1.7-.2 1-.4.7-1.4 1.4-3.1 2-4.6-.5-.9-.9-1.8-1.1-2.6-.6-2.3-.6-3.7 0-4.5.3-.4.7-.6 1.2-.7h.2c.4 0 .9.2 1.2.7.4.5 1 1.7.5 4.2-.2.8-.4 1.7-.8 2.9.7 1.1 1.7 2.2 2.9 3.5h.5c.5 0 1 0 1.5.1 2.5.3 3.8.7 4.4 1.5.4.6.4 1.2.3 1.7-.1.7-.7 1.1-1.6 1.1-1.3 0-2.9-.8-4.4-2.1-.4-.4-.8-.7-1.1-1.1-1.9.1-3.5.5-4.9 1-.6 1.2-1.5 2.7-2.3 3.5-1.3 1.1-2.4 1.8-3.3 1.8zm4-4.9c-.2.1-.3.1-.5.2-1.9.7-3.5 2-3.8 3-.1.2-.1.3 0 .4.1.2.2.2.4.2s1-.1 2.5-1.6c.3-.5.8-1.2 1.4-2.2zm8.1-1.6c.1.1.2.2.3.2 1.4 1.2 2.8 1.8 3.6 1.8.1 0 .5 0 .5-.2.1-.5 0-.6-.1-.8-.3-.5-1.6-.8-3.6-1-.2.1-.4.1-.7 0zm-5.8-.4c.9-.2 2-.5 3.1-.6-.7-.8-1.4-1.5-1.9-2.2v.1c-.4.8-.8 1.8-1.2 2.7zm.8-10.8c-.3 0-.4.1-.5.2-.2.3-.5 1.1.2 3.6.1.5.3.9.5 1.4.2-.7.4-1.2.5-1.7.4-2.1-.1-3-.3-3.3-.3-.1-.4-.2-.4-.2z"/><path d="M20.5 32.8c.4-.1.9-.1 1.6-.1.8 0 1.3.2 1.7.5.3.3.6.7.6 1.3 0 .5-.2 1-.5 1.3-.4.4-1.1.6-1.8.6h-.5v2.2h-1v-5.8zm1.1 2.7h.5c.8 0 1.3-.4 1.3-1.1 0-.6-.4-1-1.2-1-.3 0-.5 0-.6.1v2zm3.7-2.7c.5-.1 1.1-.1 1.7-.1 1.1 0 1.8.2 2.4.7.6.5.9 1.1.9 2.1s-.4 1.8-.9 2.3c-.6.5-1.5.8-2.6.8-.6 0-1.1 0-1.4-.1v-5.7zm1.1 4.9h.6c1.4 0 2.2-.7 2.2-2.2 0-1.3-.7-2-2-2-.3 0-.6 0-.7.1v4.1zm4.7-5h3.3v.9h-2.3v1.6h2.1v.8h-2.1v2.4H31v-5.7z" fill="#1E508F"/><path fill="#EF4942" d="M37.5 15.2c-.2 0-.5-.1-.6-.2l-3.5-3.5c-.2-.4-.3-.8-.1-1.1.2-.3.4-.5.8-.5h.7V6c0-.6.4-.9.8-.9h3.8c.5 0 .9.4.9.9v4h.7c.3 0 .7.2.8.6.1.3.1.7-.2.9L38.1 15c-.2.1-.4.2-.6.2zm-3-4.2l3 3 2.8-2.8H40c-.5 0-.9-.4-.9-.9v-4h-3.2v3.9c0 .5-.4.9-.9.9h-.5z"/></svg>